<?xml version="1.0" encoding="utf-8" standalone="no"?>
<!DOCTYPE svg PUBLIC "-//W3C//DTD SVG 1.1//EN"
  "http://www.w3.org/Graphics/SVG/1.1/DTD/svg11.dtd">
<svg xmlns:xlink="http://www.w3.org/1999/xlink" width="720pt" height="720pt" viewBox="0 0 720 720" xmlns="http://www.w3.org/2000/svg" version="1.1">
 <metadata>
  <rdf:RDF xmlns:dc="http://purl.org/dc/elements/1.1/" xmlns:cc="http://creativecommons.org/ns#" xmlns:rdf="http://www.w3.org/1999/02/22-rdf-syntax-ns#">
   <cc:Work>
    <dc:type rdf:resource="http://purl.org/dc/dcmitype/StillImage"/>
    <dc:date>2024-05-23T10:15:48.212273</dc:date>
    <dc:format>image/svg+xml</dc:format>
    <dc:creator>
     <cc:Agent>
      <dc:title>Matplotlib v3.9.0, https://matplotlib.org/</dc:title>
     </cc:Agent>
    </dc:creator>
   </cc:Work>
  </rdf:RDF>
 </metadata>
 <defs>
  <style type="text/css">*{stroke-linejoin: round; stroke-linecap: butt}</style>
 </defs>
 <g id="figure_1">
  <g id="patch_1">
   <path d="M 0 720 
L 720 720 
L 720 0 
L 0 0 
z
" style="fill: #ffffff"/>
  </g>
  <g id="axes_1">
   <g id="patch_2">
    <path d="M 30.535 678.04 
L 709.2 678.04 
L 709.2 10.8 
L 30.535 10.8 
z
" style="fill: #ffffff"/>
   </g>
   <g id="matplotlib.axis_1">
    <g id="xtick_1">
     <g id="line2d_1">
      <defs>
       <path id="m2d0b601ff3" d="M 0 0 
L 0 3.5 
" style="stroke: #000000; stroke-width: 0.8"/>
      </defs>
      <g>
       <use xlink:href="#m2d0b601ff3" x="61.383409" y="678.04" style="stroke: #000000; stroke-width: 0.8"/>
      </g>
     </g>
     <g id="text_1">
      <!-- 0 -->
      <g transform="translate(58.202159 692.638438) scale(0.1 -0.1)">
       <defs>
        <path id="DejaVuSans-30" d="M 2034 4250 
Q 1547 4250 1301 3770 
Q 1056 3291 1056 2328 
Q 1056 1369 1301 889 
Q 1547 409 2034 409 
Q 2525 409 2770 889 
Q 3016 1369 3016 2328 
Q 3016 3291 2770 3770 
Q 2525 4250 2034 4250 
z
M 2034 4750 
Q 2819 4750 3233 4129 
Q 3647 3509 3647 2328 
Q 3647 1150 3233 529 
Q 2819 -91 2034 -91 
Q 1250 -91 836 529 
Q 422 1150 422 2328 
Q 422 3509 836 4129 
Q 1250 4750 2034 4750 
z
" transform="scale(0.015625)"/>
       </defs>
       <use xlink:href="#DejaVuSans-30"/>
      </g>
     </g>
    </g>
    <g id="xtick_2">
     <g id="line2d_2">
      <g>
       <use xlink:href="#m2d0b601ff3" x="138.508292" y="678.04" style="stroke: #000000; stroke-width: 0.8"/>
      </g>
     </g>
     <g id="text_2">
      <!-- 25 -->
      <g transform="translate(132.145792 692.638438) scale(0.1 -0.1)">
       <defs>
        <path id="DejaVuSans-32" d="M 1228 531 
L 3431 531 
L 3431 0 
L 469 0 
L 469 531 
Q 828 903 1448 1529 
Q 2069 2156 2228 2338 
Q 2531 2678 2651 2914 
Q 2772 3150 2772 3378 
Q 2772 3750 2511 3984 
Q 2250 4219 1831 4219 
Q 1534 4219 1204 4116 
Q 875 4013 500 3803 
L 500 4441 
Q 881 4594 1212 4672 
Q 1544 4750 1819 4750 
Q 2544 4750 2975 4387 
Q 3406 4025 3406 3419 
Q 3406 3131 3298 2873 
Q 3191 2616 2906 2266 
Q 2828 2175 2409 1742 
Q 1991 1309 1228 531 
z
" transform="scale(0.015625)"/>
        <path id="DejaVuSans-35" d="M 691 4666 
L 3169 4666 
L 3169 4134 
L 1269 4134 
L 1269 2991 
Q 1406 3038 1543 3061 
Q 1681 3084 1819 3084 
Q 2600 3084 3056 2656 
Q 3513 2228 3513 1497 
Q 3513 744 3044 326 
Q 2575 -91 1722 -91 
Q 1428 -91 1123 -41 
Q 819 9 494 109 
L 494 744 
Q 775 591 1075 516 
Q 1375 441 1709 441 
Q 2250 441 2565 725 
Q 2881 1009 2881 1497 
Q 2881 1984 2565 2268 
Q 2250 2553 1709 2553 
Q 1456 2553 1204 2497 
Q 953 2441 691 2322 
L 691 4666 
z
" transform="scale(0.015625)"/>
       </defs>
       <use xlink:href="#DejaVuSans-32"/>
       <use xlink:href="#DejaVuSans-35" x="63.623047"/>
      </g>
     </g>
    </g>
    <g id="xtick_3">
     <g id="line2d_3">
      <g>
       <use xlink:href="#m2d0b601ff3" x="215.633175" y="678.04" style="stroke: #000000; stroke-width: 0.8"/>
      </g>
     </g>
     <g id="text_3">
      <!-- 50 -->
      <g transform="translate(209.270675 692.638438) scale(0.1 -0.1)">
       <use xlink:href="#DejaVuSans-35"/>
       <use xlink:href="#DejaVuSans-30" x="63.623047"/>
      </g>
     </g>
    </g>
    <g id="xtick_4">
     <g id="line2d_4">
      <g>
       <use xlink:href="#m2d0b601ff3" x="292.758058" y="678.04" style="stroke: #000000; stroke-width: 0.8"/>
      </g>
     </g>
     <g id="text_4">
      <!-- 75 -->
      <g transform="translate(286.395558 692.638438) scale(0.1 -0.1)">
       <defs>
        <path id="DejaVuSans-37" d="M 525 4666 
L 3525 4666 
L 3525 4397 
L 1831 0 
L 1172 0 
L 2766 4134 
L 525 4134 
L 525 4666 
z
" transform="scale(0.015625)"/>
       </defs>
       <use xlink:href="#DejaVuSans-37"/>
       <use xlink:href="#DejaVuSans-35" x="63.623047"/>
      </g>
     </g>
    </g>
    <g id="xtick_5">
     <g id="line2d_5">
      <g>
       <use xlink:href="#m2d0b601ff3" x="369.88294" y="678.04" style="stroke: #000000; stroke-width: 0.8"/>
      </g>
     </g>
     <g id="text_5">
      <!-- 100 -->
      <g transform="translate(360.33919 692.638438) scale(0.1 -0.1)">
       <defs>
        <path id="DejaVuSans-31" d="M 794 531 
L 1825 531 
L 1825 4091 
L 703 3866 
L 703 4441 
L 1819 4666 
L 2450 4666 
L 2450 531 
L 3481 531 
L 3481 0 
L 794 0 
L 794 531 
z
" transform="scale(0.015625)"/>
       </defs>
       <use xlink:href="#DejaVuSans-31"/>
       <use xlink:href="#DejaVuSans-30" x="63.623047"/>
       <use xlink:href="#DejaVuSans-30" x="127.246094"/>
      </g>
     </g>
    </g>
    <g id="xtick_6">
     <g id="line2d_6">
      <g>
       <use xlink:href="#m2d0b601ff3" x="447.007823" y="678.04" style="stroke: #000000; stroke-width: 0.8"/>
      </g>
     </g>
     <g id="text_6">
      <!-- 125 -->
      <g transform="translate(437.464073 692.638438) scale(0.1 -0.1)">
       <use xlink:href="#DejaVuSans-31"/>
       <use xlink:href="#DejaVuSans-32" x="63.623047"/>
       <use xlink:href="#DejaVuSans-35" x="127.246094"/>
      </g>
     </g>
    </g>
    <g id="xtick_7">
     <g id="line2d_7">
      <g>
       <use xlink:href="#m2d0b601ff3" x="524.132706" y="678.04" style="stroke: #000000; stroke-width: 0.8"/>
      </g>
     </g>
     <g id="text_7">
      <!-- 150 -->
      <g transform="translate(514.588956 692.638438) scale(0.1 -0.1)">
       <use xlink:href="#DejaVuSans-31"/>
       <use xlink:href="#DejaVuSans-35" x="63.623047"/>
       <use xlink:href="#DejaVuSans-30" x="127.246094"/>
      </g>
     </g>
    </g>
    <g id="xtick_8">
     <g id="line2d_8">
      <g>
       <use xlink:href="#m2d0b601ff3" x="601.257589" y="678.04" style="stroke: #000000; stroke-width: 0.8"/>
      </g>
     </g>
     <g id="text_8">
      <!-- 175 -->
      <g transform="translate(591.713839 692.638438) scale(0.1 -0.1)">
       <use xlink:href="#DejaVuSans-31"/>
       <use xlink:href="#DejaVuSans-37" x="63.623047"/>
       <use xlink:href="#DejaVuSans-35" x="127.246094"/>
      </g>
     </g>
    </g>
    <g id="xtick_9">
     <g id="line2d_9">
      <g>
       <use xlink:href="#m2d0b601ff3" x="678.382472" y="678.04" style="stroke: #000000; stroke-width: 0.8"/>
      </g>
     </g>
     <g id="text_9">
      <!-- 200 -->
      <g transform="translate(668.838722 692.638438) scale(0.1 -0.1)">
       <use xlink:href="#DejaVuSans-32"/>
       <use xlink:href="#DejaVuSans-30" x="63.623047"/>
       <use xlink:href="#DejaVuSans-30" x="127.246094"/>
      </g>
     </g>
    </g>
    <g id="text_10">
     <!-- t -->
     <g transform="translate(367.907344 706.316563) scale(0.1 -0.1)">
      <defs>
       <path id="DejaVuSans-74" d="M 1172 4494 
L 1172 3500 
L 2356 3500 
L 2356 3053 
L 1172 3053 
L 1172 1153 
Q 1172 725 1289 603 
Q 1406 481 1766 481 
L 2356 481 
L 2356 0 
L 1766 0 
Q 1100 0 847 248 
Q 594 497 594 1153 
L 594 3053 
L 172 3053 
L 172 3500 
L 594 3500 
L 594 4494 
L 1172 4494 
z
" transform="scale(0.015625)"/>
      </defs>
      <use xlink:href="#DejaVuSans-74"/>
     </g>
    </g>
   </g>
   <g id="matplotlib.axis_2">
    <g id="ytick_1">
     <g id="line2d_10">
      <defs>
       <path id="me9779a6008" d="M 0 0 
L -3.5 0 
" style="stroke: #000000; stroke-width: 0.8"/>
      </defs>
      <g>
       <use xlink:href="#me9779a6008" x="30.535" y="610.015642" style="stroke: #000000; stroke-width: 0.8"/>
      </g>
     </g>
     <g id="text_11">
      <!-- 0 -->
      <g transform="translate(17.1725 613.814861) scale(0.1 -0.1)">
       <use xlink:href="#DejaVuSans-30"/>
      </g>
     </g>
    </g>
    <g id="ytick_2">
     <g id="line2d_11">
      <g>
       <use xlink:href="#me9779a6008" x="30.535" y="498.146404" style="stroke: #000000; stroke-width: 0.8"/>
      </g>
     </g>
     <g id="text_12">
      <!-- 2 -->
      <g transform="translate(17.1725 501.945623) scale(0.1 -0.1)">
       <use xlink:href="#DejaVuSans-32"/>
      </g>
     </g>
    </g>
    <g id="ytick_3">
     <g id="line2d_12">
      <g>
       <use xlink:href="#me9779a6008" x="30.535" y="386.277166" style="stroke: #000000; stroke-width: 0.8"/>
      </g>
     </g>
     <g id="text_13">
      <!-- 4 -->
      <g transform="translate(17.1725 390.076385) scale(0.1 -0.1)">
       <defs>
        <path id="DejaVuSans-34" d="M 2419 4116 
L 825 1625 
L 2419 1625 
L 2419 4116 
z
M 2253 4666 
L 3047 4666 
L 3047 1625 
L 3713 1625 
L 3713 1100 
L 3047 1100 
L 3047 0 
L 2419 0 
L 2419 1100 
L 313 1100 
L 313 1709 
L 2253 4666 
z
" transform="scale(0.015625)"/>
       </defs>
       <use xlink:href="#DejaVuSans-34"/>
      </g>
     </g>
    </g>
    <g id="ytick_4">
     <g id="line2d_13">
      <g>
       <use xlink:href="#me9779a6008" x="30.535" y="274.407929" style="stroke: #000000; stroke-width: 0.8"/>
      </g>
     </g>
     <g id="text_14">
      <!-- 6 -->
      <g transform="translate(17.1725 278.207147) scale(0.1 -0.1)">
       <defs>
        <path id="DejaVuSans-36" d="M 2113 2584 
Q 1688 2584 1439 2293 
Q 1191 2003 1191 1497 
Q 1191 994 1439 701 
Q 1688 409 2113 409 
Q 2538 409 2786 701 
Q 3034 994 3034 1497 
Q 3034 2003 2786 2293 
Q 2538 2584 2113 2584 
z
M 3366 4563 
L 3366 3988 
Q 3128 4100 2886 4159 
Q 2644 4219 2406 4219 
Q 1781 4219 1451 3797 
Q 1122 3375 1075 2522 
Q 1259 2794 1537 2939 
Q 1816 3084 2150 3084 
Q 2853 3084 3261 2657 
Q 3669 2231 3669 1497 
Q 3669 778 3244 343 
Q 2819 -91 2113 -91 
Q 1303 -91 875 529 
Q 447 1150 447 2328 
Q 447 3434 972 4092 
Q 1497 4750 2381 4750 
Q 2619 4750 2861 4703 
Q 3103 4656 3366 4563 
z
" transform="scale(0.015625)"/>
       </defs>
       <use xlink:href="#DejaVuSans-36"/>
      </g>
     </g>
    </g>
    <g id="ytick_5">
     <g id="line2d_14">
      <g>
       <use xlink:href="#me9779a6008" x="30.535" y="162.538691" style="stroke: #000000; stroke-width: 0.8"/>
      </g>
     </g>
     <g id="text_15">
      <!-- 8 -->
      <g transform="translate(17.1725 166.33791) scale(0.1 -0.1)">
       <defs>
        <path id="DejaVuSans-38" d="M 2034 2216 
Q 1584 2216 1326 1975 
Q 1069 1734 1069 1313 
Q 1069 891 1326 650 
Q 1584 409 2034 409 
Q 2484 409 2743 651 
Q 3003 894 3003 1313 
Q 3003 1734 2745 1975 
Q 2488 2216 2034 2216 
z
M 1403 2484 
Q 997 2584 770 2862 
Q 544 3141 544 3541 
Q 544 4100 942 4425 
Q 1341 4750 2034 4750 
Q 2731 4750 3128 4425 
Q 3525 4100 3525 3541 
Q 3525 3141 3298 2862 
Q 3072 2584 2669 2484 
Q 3125 2378 3379 2068 
Q 3634 1759 3634 1313 
Q 3634 634 3220 271 
Q 2806 -91 2034 -91 
Q 1263 -91 848 271 
Q 434 634 434 1313 
Q 434 1759 690 2068 
Q 947 2378 1403 2484 
z
M 1172 3481 
Q 1172 3119 1398 2916 
Q 1625 2713 2034 2713 
Q 2441 2713 2670 2916 
Q 2900 3119 2900 3481 
Q 2900 3844 2670 4047 
Q 2441 4250 2034 4250 
Q 1625 4250 1398 4047 
Q 1172 3844 1172 3481 
z
" transform="scale(0.015625)"/>
       </defs>
       <use xlink:href="#DejaVuSans-38"/>
      </g>
     </g>
    </g>
    <g id="ytick_6">
     <g id="line2d_15">
      <g>
       <use xlink:href="#me9779a6008" x="30.535" y="50.669453" style="stroke: #000000; stroke-width: 0.8"/>
      </g>
     </g>
     <g id="text_16">
      <!-- 10 -->
      <g transform="translate(10.81 54.468672) scale(0.1 -0.1)">
       <use xlink:href="#DejaVuSans-31"/>
       <use xlink:href="#DejaVuSans-30" x="63.623047"/>
      </g>
     </g>
    </g>
   </g>
   <g id="line2d_16">
    <path d="M 61.383409 554.081023 
L 69.034197 388.290213 
L 69.065047 388.961434 
L 71.378794 436.889033 
L 71.934092 443.034007 
L 72.427692 446.226984 
L 72.797891 447.406113 
L 73.044691 447.646332 
L 73.229791 447.544193 
L 73.44574 447.117765 
L 73.75424 445.921579 
L 74.12444 443.52426 
L 74.587188 438.875902 
L 75.080788 431.444485 
L 75.852037 419.186623 
L 76.376485 414.35415 
L 76.808386 412.075986 
L 77.147734 411.25055 
L 77.394535 411.110297 
L 77.610484 411.244723 
L 77.918983 411.77701 
L 78.350883 413.038795 
L 79.091282 416.03256 
L 80.294429 420.849257 
L 80.757179 421.916392 
L 81.065678 422.168933 
L 81.281629 422.062859 
L 81.528428 421.600025 
L 81.867778 420.40472 
L 82.361376 417.763034 
L 83.132625 412.253833 
L 85.261273 396.495937 
L 86.217621 391.326974 
L 87.32822 386.623552 
L 88.377118 381.976727 
L 89.086667 377.713042 
L 89.796216 372.059174 
L 90.567465 364.07908 
L 91.462113 352.316458 
L 92.480162 335.783629 
L 93.65246 312.945075 
L 98.033153 218.35246 
L 98.094853 219.6949 
L 100.624546 272.470949 
L 101.179849 278.71981 
L 101.673445 281.988294 
L 102.043644 283.21914 
L 102.290444 283.492765 
L 102.475547 283.415603 
L 102.691493 283.018648 
L 102.999996 281.866031 
L 103.370195 279.525002 
L 103.802095 275.325515 
L 104.357391 267.446614 
L 104.912693 261.226639 
L 105.406291 257.979119 
L 105.776489 256.762649 
L 106.023288 256.498226 
L 106.208391 256.582268 
L 106.424338 256.98173 
L 106.76369 258.182864 
L 107.257289 260.921061 
L 107.997688 266.508623 
L 109.972085 282.045451 
L 110.496534 284.336417 
L 110.897584 285.215197 
L 111.267783 285.540538 
L 111.60713 285.558942 
L 112.069882 285.335646 
L 112.933681 284.889935 
L 113.30388 284.955441 
L 113.64323 285.249923 
L 114.013429 285.879536 
L 114.445325 287.074348 
L 114.969775 289.247078 
L 115.586777 292.839223 
L 116.358026 298.756955 
L 117.746273 311.578683 
L 121.479118 348.067336 
L 122.373766 360.046532 
L 123.175862 373.840444 
L 124.348163 398.98386 
L 127.525706 467.448312 
L 127.556555 466.777092 
L 130.456454 406.063051 
L 131.011753 399.895232 
L 131.505353 396.685626 
L 131.875552 395.495094 
L 132.122352 395.247488 
L 132.307451 395.344106 
L 132.523401 395.763998 
L 132.831901 396.950543 
L 133.202097 399.335393 
L 133.664849 403.965681 
L 134.220145 409.44677 
L 134.682898 412.038593 
L 135.022244 412.924373 
L 135.238194 413.060639 
L 135.423297 412.915385 
L 135.670096 412.34249 
L 135.978596 411.000156 
L 136.379645 408.180557 
L 136.934944 402.541279 
L 137.737043 391.862688 
L 139.95824 360.988416 
L 140.760338 353.911666 
L 142.950682 336.163487 
L 143.598534 328.00792 
L 144.215527 317.349027 
L 145.973981 279.191286 
L 147.948378 236.904418 
L 147.979228 237.575638 
L 151.403566 309.730121 
L 151.958868 315.918463 
L 152.452468 319.142939 
L 152.82267 320.343646 
L 153.06947 320.597854 
L 153.254566 320.506156 
L 153.470513 320.092078 
L 153.779016 318.914095 
L 154.180068 316.343503 
L 154.611967 314.091798 
L 154.951317 313.290553 
L 155.167267 313.207071 
L 155.352366 313.397667 
L 155.599163 314.031973 
L 155.938515 315.63641 
L 156.339562 318.70707 
L 156.802308 324.066589 
L 157.295913 332.454093 
L 158.900108 367.247865 
L 164.113753 480.012846 
L 164.144597 479.341626 
L 166.458343 431.31226 
L 167.013642 425.097393 
L 167.507242 421.853553 
L 167.877447 420.639604 
L 168.124247 420.376848 
L 168.309347 420.46213 
L 168.525296 420.868661 
L 168.83379 422.035441 
L 169.203995 424.394793 
L 169.666745 428.988048 
L 170.160344 436.343544 
L 170.931593 448.476555 
L 171.456042 453.248857 
L 171.887941 455.484346 
L 172.227291 456.277296 
L 172.47409 456.39045 
L 172.690034 456.229687 
L 172.99854 455.655792 
L 173.461283 454.215359 
L 174.232531 450.921551 
L 175.404836 446.041149 
L 175.867585 444.915843 
L 176.176085 444.632176 
L 176.392034 444.720526 
L 176.638834 445.162543 
L 176.978174 446.310293 
L 177.471773 448.846412 
L 178.273882 454.34321 
L 180.186579 467.814248 
L 181.081227 472.454245 
L 182.006726 476.093279 
L 183.580073 481.984031 
L 184.258766 485.691158 
L 184.968315 490.854254 
L 185.77042 498.467212 
L 186.695919 509.596574 
L 187.775658 525.437319 
L 189.071365 547.891741 
L 190.274513 572.534759 
L 193.760558 647.710909 
L 193.791408 647.039692 
L 196.475354 590.977523 
L 197.030644 584.77 
L 197.524243 581.531485 
L 197.894452 580.321176 
L 198.141245 580.060764 
L 198.326351 580.1478 
L 198.542301 580.556398 
L 198.850794 581.726242 
L 199.221 584.08951 
L 199.683743 588.688467 
L 200.732647 600.381401 
L 201.164541 602.6213 
L 201.503896 603.413856 
L 201.71984 603.491895 
L 201.904946 603.296653 
L 202.151736 602.656469 
L 202.521945 600.930572 
L 203.046394 597.225349 
L 203.817643 589.952019 
L 205.88459 569.669444 
L 206.470739 566.323439 
L 207.056879 564.2467 
L 207.797287 562.493686 
L 208.691935 560.350854 
L 209.247234 558.35403 
L 209.802534 555.481068 
L 210.388683 551.24184 
L 211.036532 544.866303 
L 211.776931 535.210725 
L 212.702429 519.854338 
L 214.090677 492.622494 
L 216.898023 431.801099 
L 218.74902 392.199112 
L 218.77987 392.870332 
L 221.247866 444.350603 
L 221.803165 450.633723 
L 222.296765 453.927052 
L 222.666964 455.174821 
L 222.913764 455.459448 
L 223.098863 455.390515 
L 223.314807 455.003242 
L 223.623313 453.86484 
L 223.993512 451.542214 
L 224.425411 447.367346 
L 224.919011 440.268952 
L 225.47431 432.65478 
L 225.998759 428.222716 
L 226.430658 426.23038 
L 226.739158 425.642829 
L 226.924258 425.61401 
L 227.140207 425.869405 
L 227.448701 426.692934 
L 227.880597 428.569729 
L 228.528455 432.485241 
L 230.657102 446.142661 
L 231.089001 447.463204 
L 231.397501 447.819751 
L 231.6443 447.803282 
L 231.92195 447.531684 
L 232.322999 446.785796 
L 233.063392 444.817037 
L 234.019747 442.426306 
L 234.513346 441.703409 
L 234.883539 441.487609 
L 235.192045 441.543379 
L 235.531385 441.860746 
L 235.932438 442.579188 
L 236.456893 444.042545 
L 237.166442 446.774194 
L 239.449329 456.114131 
L 240.405687 458.846194 
L 242.904533 465.456083 
L 243.675782 468.584607 
L 244.508722 472.976543 
L 245.465079 479.297097 
L 246.637378 488.613217 
L 248.056475 501.758753 
L 249.383023 516.10481 
L 250.493622 530.566328 
L 251.449961 545.94796 
L 252.344613 563.992409 
L 256.046613 643.867073 
L 256.077454 643.195856 
L 258.946509 583.162163 
L 259.501808 577.000369 
L 259.995407 573.795134 
L 260.365607 572.607583 
L 260.612406 572.361913 
L 260.797506 572.459971 
L 261.013456 572.881564 
L 261.321955 574.070586 
L 261.692155 576.458677 
L 262.154904 581.093609 
L 262.771903 587.354153 
L 263.234652 589.94991 
L 263.574002 590.838385 
L 263.789952 590.976334 
L 263.975051 590.832529 
L 264.221851 590.261591 
L 264.53035 588.921808 
L 264.96225 585.869264 
L 265.548399 579.912313 
L 266.443048 568.144546 
L 268.263195 543.754773 
L 268.972744 537.375321 
L 269.990777 530.43591 
L 271.101378 522.611265 
L 271.780089 516.10767 
L 272.427926 507.614813 
L 273.044938 496.494039 
L 277.333081 403.888533 
L 277.394781 405.230973 
L 280.387226 467.983427 
L 280.942526 474.168262 
L 281.436125 477.390244 
L 281.806324 478.589257 
L 282.053124 478.842345 
L 282.238224 478.749834 
L 282.454161 478.334782 
L 282.762673 477.155399 
L 283.132872 474.779777 
L 283.657306 469.673613 
L 284.150921 466.007213 
L 284.55197 464.426955 
L 284.82962 464.015117 
L 285.014719 464.043509 
L 285.230669 464.383067 
L 285.508319 465.312856 
L 285.878518 467.45566 
L 286.341267 471.68806 
L 286.958251 479.721764 
L 287.852903 494.752537 
L 289.765612 527.555066 
L 290.691111 538.6033 
L 292.449558 558.81096 
L 293.128242 569.865061 
L 294.11544 591.028442 
L 295.596253 622.575561 
L 295.627103 621.904346 
L 299.390797 542.188397 
L 299.946097 535.565799 
L 300.439696 532.025664 
L 300.84073 530.537469 
L 301.118395 530.186916 
L 301.303495 530.25591 
L 301.519444 530.643256 
L 301.889644 531.949163 
L 302.198143 532.60484 
L 302.414093 532.661831 
L 302.599177 532.44849 
L 302.845992 531.783305 
L 303.185342 530.13434 
L 303.586376 527.005542 
L 304.049128 521.565675 
L 304.54274 513.018413 
L 308.275584 431.826264 
L 310.188281 390.881836 
L 310.219119 391.553056 
L 312.625412 441.699689 
L 313.180711 447.989117 
L 313.674326 451.287086 
L 314.044525 452.537976 
L 314.291313 452.82463 
L 314.476425 452.757204 
L 314.692374 452.371704 
L 315.000874 451.235943 
L 315.371073 448.916679 
L 315.802973 444.746384 
L 316.296572 437.648203 
L 316.913571 428.560513 
L 317.43802 423.851597 
L 317.869919 421.66117 
L 318.209269 420.905147 
L 318.425219 420.845016 
L 318.641168 421.072619 
L 318.949668 421.813452 
L 319.412417 423.643918 
L 320.121951 427.540827 
L 321.787851 437.000774 
L 322.281463 438.555161 
L 322.589962 438.940127 
L 322.805912 438.902387 
L 323.052712 438.595422 
L 323.422896 437.711909 
L 323.978195 435.718679 
L 326.106857 427.409029 
L 326.662156 426.292245 
L 327.094055 425.854189 
L 327.464255 425.767853 
L 327.834439 425.921668 
L 328.297204 426.38693 
L 330.209901 428.668094 
L 330.61095 428.708648 
L 331.011999 428.519239 
L 331.474733 428.021052 
L 332.030036 427.070165 
L 332.801284 425.267451 
L 335.855442 417.609685 
L 338.601088 412.037632 
L 339.464887 409.437835 
L 340.39037 405.895219 
L 341.439284 400.948911 
L 342.704116 393.866653 
L 344.12323 384.629709 
L 345.418928 374.725704 
L 346.56036 364.262848 
L 347.609274 352.579228 
L 348.627323 338.667587 
L 349.614521 321.95675 
L 350.66342 300.005857 
L 354.272849 222.144323 
L 354.303714 222.815543 
L 357.04936 280.205637 
L 357.604659 286.395553 
L 358.098258 289.621282 
L 358.468442 290.822816 
L 358.715257 291.077557 
L 358.900342 290.98626 
L 359.116291 290.572662 
L 359.424806 289.3954 
L 359.794993 287.022551 
L 360.257755 282.40968 
L 361.152404 272.6692 
L 361.615153 270.202068 
L 361.954502 269.401596 
L 362.170452 269.318594 
L 362.355552 269.50959 
L 362.602351 270.14443 
L 362.941701 271.727156 
L 363.435288 275.275346 
L 364.144849 282.255518 
L 366.736233 309.627221 
L 367.384079 313.181866 
L 368.217043 316.41453 
L 369.265926 320.488606 
L 369.88294 323.89557 
L 370.499939 328.637746 
L 371.147776 335.502776 
L 371.826487 345.231787 
L 372.566871 359.232671 
L 378.089016 478.697851 
L 378.150728 477.35541 
L 380.495309 428.664813 
L 381.050608 422.456787 
L 381.544223 419.217922 
L 381.914404 418.007387 
L 382.161209 417.746831 
L 382.346321 417.833767 
L 382.562271 418.242258 
L 382.870771 419.411932 
L 383.240952 421.774992 
L 383.703707 426.37362 
L 384.197319 433.736544 
L 384.845168 443.522406 
L 385.369617 448.300589 
L 385.801504 450.540252 
L 386.140866 451.332695 
L 386.356815 451.424779 
L 386.572753 451.245838 
L 386.881249 450.60001 
L 387.313145 449.091765 
L 387.991847 445.797343 
L 389.59606 437.750796 
L 390.05881 436.483397 
L 390.367309 436.170724 
L 390.552409 436.23799 
L 390.799209 436.613808 
L 391.16939 437.680676 
L 391.724689 440.108975 
L 392.83529 446.289116 
L 393.884204 451.573394 
L 394.624603 454.246725 
L 395.241602 455.717176 
L 395.796883 456.522902 
L 396.4139 457.025904 
L 397.33938 457.722355 
L 397.832998 458.427075 
L 398.357435 459.60223 
L 398.943596 461.518766 
L 399.622295 464.550405 
L 400.486094 469.53492 
L 401.689242 477.96906 
L 403.910439 495.436426 
L 405.267837 507.578513 
L 406.28587 518.676502 
L 407.211384 531.229107 
L 408.106032 546.515487 
L 409.216631 570.087717 
L 412.764357 646.606297 
L 412.795213 645.93508 
L 415.540856 588.605883 
L 416.096158 582.457603 
L 416.589769 579.262213 
L 416.959953 578.081397 
L 417.206769 577.840091 
L 417.39185 577.941417 
L 417.607818 578.366861 
L 417.916317 579.561576 
L 418.286501 581.957029 
L 418.749266 586.602653 
L 419.643915 596.409694 
L 420.106664 598.904102 
L 420.446014 599.723307 
L 420.661963 599.818013 
L 420.847063 599.637092 
L 421.093863 599.015888 
L 421.433212 597.45462 
L 421.926796 593.948015 
L 422.63636 587.048189 
L 425.196906 560.291046 
L 425.813905 556.915039 
L 426.585154 553.971936 
L 427.788302 549.548134 
L 428.405271 546.224779 
L 429.022301 541.572414 
L 429.67015 534.829427 
L 430.348849 525.294606 
L 431.120097 511.00834 
L 434.328492 441.261126 
L 436.734789 389.577176 
L 436.765639 390.248397 
L 439.11022 439.065604 
L 439.665519 445.364528 
L 440.159134 448.669392 
L 440.529315 449.924989 
L 440.77612 450.214684 
L 440.961232 450.149511 
L 441.177182 449.766692 
L 441.485682 448.634865 
L 441.855863 446.320682 
L 442.28775 442.157162 
L 442.78138 435.068863 
L 443.552628 423.374494 
L 444.077062 418.815353 
L 444.508962 416.731839 
L 444.817477 416.08209 
L 445.033426 416.007049 
L 445.249376 416.193697 
L 445.557875 416.836699 
L 446.020625 418.443669 
L 446.761024 422.001168 
L 448.149256 428.713436 
L 448.642871 430.079654 
L 448.95137 430.405155 
L 449.136455 430.351398 
L 449.38327 429.978808 
L 449.722619 428.996889 
L 450.247053 426.673757 
L 451.141717 421.468014 
L 452.499115 413.783722 
L 453.301214 410.494728 
L 453.979897 408.587274 
L 454.627731 407.388928 
L 456.417059 404.54343 
L 457.003177 402.772082 
L 457.620207 400.160282 
L 458.360606 395.978946 
L 459.255255 389.548544 
L 460.458403 379.148647 
L 462.309369 361.017542 
L 463.666798 345.750525 
L 464.684846 331.750333 
L 465.579495 316.279891 
L 466.782643 290.520385 
L 469.805939 225.412034 
L 469.836789 226.083254 
L 472.736684 286.797469 
L 473.291983 292.965354 
L 473.785583 296.175054 
L 474.155782 297.365652 
L 474.402551 297.613299 
L 474.587681 297.51672 
L 474.803631 297.096854 
L 475.112131 295.910364 
L 475.48233 293.52554 
L 475.945048 288.895359 
L 476.500378 283.414377 
L 476.963097 280.822607 
L 477.302446 279.936866 
L 477.518427 279.800654 
L 477.703527 279.945935 
L 477.950326 280.51887 
L 478.258795 281.861257 
L 478.659875 284.680909 
L 479.215174 290.320401 
L 480.017273 300.999325 
L 482.23847 331.874837 
L 483.040568 338.95188 
L 485.230915 356.701233 
L 485.878733 364.857334 
L 486.495763 375.517054 
L 488.254211 413.675008 
L 490.228608 455.961876 
L 490.259458 455.290656 
L 493.683771 383.138414 
L 494.239101 376.951752 
L 494.732701 373.728449 
L 495.1029 372.528516 
L 495.3497 372.274842 
L 495.5348 372.366886 
L 495.750749 372.781417 
L 496.059249 373.960013 
L 496.460298 376.531512 
L 496.892197 378.784151 
L 497.231547 379.586089 
L 497.447466 379.669972 
L 497.632596 379.479776 
L 497.879365 378.846003 
L 498.218715 377.242287 
L 498.619795 374.17264 
L 499.082513 368.814561 
L 499.576143 360.429137 
L 501.180341 325.636219 
L 506.424833 212.200018 
L 506.455683 212.871238 
L 508.738579 260.238159 
L 509.293879 266.459067 
L 509.787447 269.707307 
L 510.157677 270.924284 
L 510.404477 271.188947 
L 510.589577 271.105091 
L 510.805526 270.700295 
L 511.114026 269.536075 
L 511.484225 267.18003 
L 511.946975 262.591483 
L 512.440543 255.242442 
L 513.304342 241.549482 
L 513.828822 236.924928 
L 514.260721 234.794659 
L 514.600071 234.069269 
L 514.846839 233.976131 
L 515.06282 234.136242 
L 515.371319 234.683865 
L 515.834069 236.035187 
L 516.667017 239.319434 
L 517.654216 242.958975 
L 518.116965 243.935986 
L 518.394615 244.134584 
L 518.610534 244.030191 
L 518.857364 243.575171 
L 519.196714 242.360302 
L 519.690313 239.626639 
L 520.430712 234.093674 
L 522.898677 214.693983 
L 523.916756 208.886752 
L 526.107103 197.168005 
L 526.847471 191.161297 
L 527.587901 183.273888 
L 528.42085 171.849009 
L 529.346348 155.81294 
L 530.518616 131.072587 
L 534.68339 41.129091 
L 534.71424 41.800311 
L 537.213055 93.849236 
L 537.768385 100.058622 
L 538.261985 103.298488 
L 538.632184 104.509756 
L 538.878984 104.770766 
L 539.064083 104.684189 
L 539.280033 104.276166 
L 539.588533 103.107091 
L 539.958701 100.744939 
L 540.390601 96.51694 
L 540.884231 89.366363 
L 541.43953 82.046633 
L 541.963979 77.830637 
L 542.365028 76.079906 
L 542.673528 75.530576 
L 542.858597 75.524548 
L 543.074577 75.809455 
L 543.383046 76.68226 
L 543.845826 78.808368 
L 544.524525 83.140493 
L 546.560591 96.862765 
L 547.023371 98.466855 
L 547.362721 98.95532 
L 547.60952 99.001302 
L 547.88717 98.810867 
L 548.288219 98.200991 
L 548.997768 96.609757 
L 549.861567 94.806964 
L 550.324285 94.269582 
L 550.663635 94.150413 
L 550.972165 94.269102 
L 551.311515 94.663096 
L 551.743414 95.570254 
L 552.267863 97.259533 
L 552.977381 100.409835 
L 556.216657 116.027079 
L 558.530404 125.325101 
L 559.363353 129.956003 
L 560.196301 135.876001 
L 561.121769 144.114464 
L 562.201548 155.860736 
L 563.404696 171.487821 
L 564.607845 190.059569 
L 565.656712 209.725284 
L 568.680038 275.433189 
L 569.543837 293.556132 
L 569.574687 292.884912 
L 572.382033 234.122346 
L 572.937301 227.909145 
L 573.430931 224.666533 
L 573.8011 223.453397 
L 574.04793 223.191134 
L 574.232999 223.276804 
L 574.44898 223.683814 
L 574.757479 224.851288 
L 575.127679 227.211574 
L 575.590428 231.806148 
L 576.330827 239.608182 
L 576.793545 242.170079 
L 577.132926 243.035389 
L 577.348875 243.158879 
L 577.533975 243.002663 
L 577.780775 242.414952 
L 578.120124 240.879782 
L 578.582873 237.518214 
L 579.230722 230.919021 
L 580.31044 217.173678 
L 581.606138 201.402085 
L 582.284837 195.624807 
L 583.086966 190.788454 
L 584.752864 181.372915 
L 585.400713 175.941783 
L 586.048531 168.483014 
L 586.696411 158.260283 
L 587.49851 141.453215 
L 592.064272 42.783857 
L 592.095153 43.455077 
L 594.655699 96.955583 
L 595.210998 103.243384 
L 595.704597 106.540113 
L 596.074766 107.790216 
L 596.321596 108.076457 
L 596.506665 108.008604 
L 596.722646 107.622664 
L 597.031114 106.48629 
L 597.401345 104.166225 
L 597.833244 99.994717 
L 598.388512 92.160917 
L 598.943842 85.979749 
L 599.437442 82.760421 
L 599.807641 81.563235 
L 600.054441 81.311294 
L 600.23954 81.404752 
L 600.455459 81.815763 
L 600.794809 83.038554 
L 601.288439 85.816092 
L 602.028838 91.478015 
L 604.003235 107.270598 
L 604.527684 109.636111 
L 604.959583 110.621737 
L 605.329752 110.973271 
L 605.699982 111.023467 
L 606.224431 110.824762 
L 606.93398 110.593145 
L 607.304149 110.710288 
L 607.674379 111.094573 
L 608.075398 111.878988 
L 608.538178 113.328009 
L 609.093477 115.901615 
L 609.741326 120.072803 
L 610.574244 127.058656 
L 612.332722 144.355576 
L 615.201737 173.943565 
L 616.127235 186.364071 
L 616.929365 200.123524 
L 618.101632 225.261339 
L 621.124959 290.36969 
L 621.155809 289.69847 
L 624.086554 228.072963 
L 624.641853 221.733739 
L 625.135422 218.399669 
L 625.505652 217.124148 
L 625.783302 216.81409 
L 625.968401 216.909974 
L 626.184351 217.329014 
L 626.492851 218.514224 
L 626.86305 220.897421 
L 627.325799 225.501384 
L 627.850248 230.168372 
L 628.282148 232.328887 
L 628.621497 233.062839 
L 628.837447 233.10418 
L 629.022547 232.877364 
L 629.300196 232.077239 
L 629.639546 230.322108 
L 630.071445 226.792028 
L 630.657594 219.982235 
L 631.521393 206.98722 
L 633.49579 176.335644 
L 634.328739 167.559853 
L 636.488235 146.35398 
L 637.136054 136.671031 
L 637.814752 122.79625 
L 640.19023 71.783521 
L 640.221049 72.454741 
L 644.139024 155.295509 
L 644.694323 161.449845 
L 645.187891 164.649543 
L 645.558122 165.833286 
L 645.804921 166.076506 
L 645.990021 165.97662 
L 646.20594 165.552887 
L 646.79212 164.151369 
L 646.977189 164.172386 
L 647.193169 164.503249 
L 647.470819 165.421582 
L 647.840987 167.548117 
L 648.272887 171.46155 
L 648.766517 178.18898 
L 649.321816 189.292758 
L 654.381208 298.701638 
L 654.412058 298.030417 
L 656.972604 244.555063 
L 657.527873 238.285665 
L 658.021503 235.002272 
L 658.391671 233.761291 
L 658.638471 233.481025 
L 658.823571 233.553225 
L 659.039551 233.944365 
L 659.348051 235.088422 
L 659.71825 237.418408 
L 660.180969 241.969215 
L 661.630916 258.262586 
L 662.031997 259.888333 
L 662.309646 260.330416 
L 662.494715 260.322015 
L 662.710696 260.007529 
L 663.019164 259.040759 
L 663.451064 256.858214 
L 664.098943 252.278575 
L 666.59779 233.185742 
L 667.029658 231.758406 
L 667.430738 231.123353 
L 667.770088 230.945319 
L 668.140287 230.995462 
L 669.559385 231.437519 
L 669.898735 231.173629 
L 670.268934 230.587225 
L 670.700833 229.450477 
L 671.225283 227.35008 
L 671.842251 223.829015 
L 672.582681 218.204832 
L 673.785829 207.004957 
L 677.703773 167.723057 
L 678.351591 159.263619 
L 678.351591 159.263619 
" clip-path="url(#p1dc96696d3)" style="fill: none; stroke: #1f77b4; stroke-width: 1.5; stroke-linecap: square"/>
   </g>
   <g id="patch_3">
    <path d="M 30.535 678.04 
L 30.535 10.8 
" style="fill: none; stroke: #000000; stroke-width: 0.8; stroke-linejoin: miter; stroke-linecap: square"/>
   </g>
   <g id="patch_4">
    <path d="M 709.2 678.04 
L 709.2 10.8 
" style="fill: none; stroke: #000000; stroke-width: 0.8; stroke-linejoin: miter; stroke-linecap: square"/>
   </g>
   <g id="patch_5">
    <path d="M 30.535 678.04 
L 709.2 678.04 
" style="fill: none; stroke: #000000; stroke-width: 0.8; stroke-linejoin: miter; stroke-linecap: square"/>
   </g>
   <g id="patch_6">
    <path d="M 30.535 10.8 
L 709.2 10.8 
" style="fill: none; stroke: #000000; stroke-width: 0.8; stroke-linejoin: miter; stroke-linecap: square"/>
   </g>
   <g id="legend_1">
    <g id="patch_7">
     <path d="M 666.679687 33.478125 
L 702.2 33.478125 
Q 704.2 33.478125 704.2 31.478125 
L 704.2 17.8 
Q 704.2 15.8 702.2 15.8 
L 666.679687 15.8 
Q 664.679687 15.8 664.679687 17.8 
L 664.679687 31.478125 
Q 664.679687 33.478125 666.679687 33.478125 
z
" style="fill: #ffffff; opacity: 0.8; stroke: #cccccc; stroke-linejoin: miter"/>
    </g>
    <g id="line2d_17">
     <path d="M 668.679687 23.898438 
L 678.679687 23.898438 
L 688.679687 23.898438 
" style="fill: none; stroke: #1f77b4; stroke-width: 1.5; stroke-linecap: square"/>
    </g>
    <g id="text_17">
     <!-- f -->
     <g transform="translate(696.679687 27.398438) scale(0.1 -0.1)">
      <defs>
       <path id="DejaVuSans-66" d="M 2375 4863 
L 2375 4384 
L 1825 4384 
Q 1516 4384 1395 4259 
Q 1275 4134 1275 3809 
L 1275 3500 
L 2222 3500 
L 2222 3053 
L 1275 3053 
L 1275 0 
L 697 0 
L 697 3053 
L 147 3053 
L 147 3500 
L 697 3500 
L 697 3744 
Q 697 4328 969 4595 
Q 1241 4863 1831 4863 
L 2375 4863 
z
" transform="scale(0.015625)"/>
      </defs>
      <use xlink:href="#DejaVuSans-66"/>
     </g>
    </g>
   </g>
  </g>
 </g>
 <defs>
  <clipPath id="p1dc96696d3">
   <rect x="30.535" y="10.8" width="678.665" height="667.24"/>
  </clipPath>
 </defs>
</svg>
